# xmcd CD database file
#
# Track frame offsets:
#	150
#	17439
#	39888
#	59816
#	79062
#	99361
#	117719
#	138058
#	155439
#	173273
#	190540
#
# Disc length: 2814 seconds
#
# Revision: 0
# Processed by: cddbd v1.5.2PL0 Copyright (c) Steve Scherf et al.
# Submitted via: CDex 1.51
#
DISCID=7b0afc0b
DTITLE=Jetty Road - Dirty Roads City Lights
DYEAR=2006
DGENRE=Country
TTITLE0=City Lights
TTITLE1=Brother Sister
TTITLE2=I Don't Want To Know
TTITLE3='Till The Day I Die
TTITLE4=I Wanna Go Home
TTITLE5=Real Smooth Cowboy
TTITLE6=Full Circle
TTITLE7=Show Me What Is Love
TTITLE8=You Are
TTITLE9=Kiss Me
TTITLE10=How You Love Someone
EXTD=YEAR: 2006
EXTT0=
EXTT1=
EXTT2=
EXTT3=
EXTT4=
EXTT5=
EXTT6=
EXTT7=
EXTT8=
EXTT9=
EXTT10=
PLAYORDER=
